<svg id="Layer_1" data-name="Layer 1" xmlns="http://www.w3.org/2000/svg" xmlns:xlink="http://www.w3.org/1999/xlink" viewBox="0 0 217 237"><defs><style>.cls-1,.cls-2{fill:#fff;}.cls-11,.cls-12,.cls-16,.cls-18,.cls-19,.cls-2,.cls-23,.cls-25,.cls-7{fill-rule:evenodd;}.cls-3{fill:#972dc2;}.cls-4{mask:url(#mask);}.cls-5{fill:#00dfc0;}.cls-6{mask:url(#mask-2-2);}.cls-7{fill:#d0c6ac;}.cls-8{mask:url(#mask-3);}.cls-9{fill:#ffdbb4;}.cls-10{mask:url(#mask-4-2);}.cls-11{fill-opacity:0.1;}.cls-12{fill:#b7c1db;}.cls-13{mask:url(#mask-5);}.cls-14{fill:#293347;}.cls-15{mask:url(#mask-6-3);}.cls-16{fill:#f4f4f4;}.cls-17{mask:url(#mask-7);}.cls-18{fill-opacity:0.16;}.cls-19{fill-opacity:0.7;}.cls-20{mask:url(#mask-8-4);}.cls-21{mask:url(#mask-9);}.cls-22{fill:#ff4f6d;}.cls-23{fill-opacity:0.6;}.cls-24{mask:url(#mask-10-3);}.cls-25{fill:#1f3140;}.cls-26{mask:url(#mask-11);}.cls-27{fill:#4a312c;}</style><mask id="mask" x="0.8" y="21" width="216.45" height="216" maskUnits="userSpaceOnUse"><g id="mask-2"><circle id="path-1" class="cls-1" cx="108.8" cy="129" r="108"/></g></mask><mask id="mask-2-2" x="-10" y="-15" width="237.6" height="252" maskUnits="userSpaceOnUse"><g id="mask-4"><path id="path-3" class="cls-2" d="M-10,129V-15H227.6V129H216.8a108,108,0,0,1-216,0H-10Z"/></g></mask><mask id="mask-3" x="-10" y="17.4" width="238.38" height="220.35" maskUnits="userSpaceOnUse"><g id="mask-6"><path id="path-5" class="cls-2" d="M108.8,17.4a50.39,50.39,0,0,1,50.4,50.4v5.55a10.8,10.8,0,0,1,9,10.65V96.6a10.79,10.79,0,0,1-9.28,10.69,50.44,50.44,0,0,1-28.52,40.26V164.1H134a64.8,64.8,0,0,1,64.8,64.8V237H18.8v-8.1a64.8,64.8,0,0,1,64.8-64.8h3.6V147.55a50.47,50.47,0,0,1-28.53-40.26A10.79,10.79,0,0,1,49.4,96.6V84a10.8,10.8,0,0,1,9-10.65V67.8A50.39,50.39,0,0,1,108.8,17.4Z"/></g></mask><mask id="mask-4-2" x="18.8" y="17.4" width="180" height="219.6" maskUnits="userSpaceOnUse"><g id="mask-6-2" data-name="mask-6"><path id="path-5-2" data-name="path-5" class="cls-2" d="M108.8,17.4a50.39,50.39,0,0,1,50.4,50.4v5.55a10.8,10.8,0,0,1,9,10.65V96.6a10.79,10.79,0,0,1-9.28,10.69,50.44,50.44,0,0,1-28.52,40.26V164.1H134a64.8,64.8,0,0,1,64.8,64.8V237H18.8v-8.1a64.8,64.8,0,0,1,64.8-64.8h3.6V147.55a50.47,50.47,0,0,1-28.53-40.26A10.79,10.79,0,0,1,49.4,96.6V84a10.8,10.8,0,0,1,9-10.65V67.8A50.39,50.39,0,0,1,108.8,17.4Z"/></g></mask><mask id="mask-5" x="-10" y="138" width="238.49" height="99" maskUnits="userSpaceOnUse"><g id="mask-8"><path id="path-7" class="cls-2" d="M130.4,149.76c16.29,1.83,28.8,6.84,28.8,19.81v-.39A64.81,64.81,0,0,1,198.8,228.9V237H18.8v-8.1a64.81,64.81,0,0,1,39.61-59.72c.24-12.68,12.66-17.61,28.79-19.42v17a21.6,21.6,0,0,0,43.2,0h0Z"/></g></mask><mask id="mask-6-3" x="18.8" y="149.76" width="180" height="87.24" maskUnits="userSpaceOnUse"><g id="mask-8-2" data-name="mask-8"><path id="path-7-2" data-name="path-7" class="cls-2" d="M130.4,149.76c16.29,1.83,28.8,6.84,28.8,19.81v-.39A64.81,64.81,0,0,1,198.8,228.9V237H18.8v-8.1a64.81,64.81,0,0,1,39.61-59.72c.24-12.68,12.66-17.61,28.79-19.42v17a21.6,21.6,0,0,0,43.2,0h0Z"/></g></mask><mask id="mask-7" x="18.8" y="149.45" width="180" height="87.55" maskUnits="userSpaceOnUse"><g id="mask-8-3" data-name="mask-8"><path id="path-7-3" data-name="path-7" class="cls-2" d="M130.4,149.76c16.29,1.83,28.8,6.84,28.8,19.81v-.39A64.81,64.81,0,0,1,198.8,228.9V237H18.8v-8.1a64.81,64.81,0,0,1,39.61-59.72c.24-12.68,12.66-17.61,28.79-19.42v17a21.6,21.6,0,0,0,43.2,0h0Z"/></g></mask><mask id="mask-8-4" x="91.8" y="107.4" width="34.01" height="27" maskUnits="userSpaceOnUse"><g id="mask-10"><path id="path-9" class="cls-2" d="M91.81,119.22a17.1,17.1,0,0,0,34-.08,1.88,1.88,0,0,0-1.66-1.84H93.58A1.92,1.92,0,0,0,91.81,119.22Z"/></g></mask><mask id="mask-9" x="91.8" y="117.3" width="34.01" height="29.7" maskUnits="userSpaceOnUse"><g id="mask-10-2" data-name="mask-10"><path id="path-9-2" data-name="path-9" class="cls-2" d="M91.81,119.22a17.1,17.1,0,0,0,34-.08,1.88,1.88,0,0,0-1.66-1.84H93.58A1.92,1.92,0,0,0,91.81,119.22Z"/></g></mask><mask id="mask-10-3" x="-10" y="-15" width="237.6" height="252" maskUnits="userSpaceOnUse"><g id="mask-12"><rect id="path-11" class="cls-1" x="-10" y="-15" width="237.6" height="252"/></g></mask><mask id="mask-11" x="-10.1" y="-15" width="239.11" height="252.41" maskUnits="userSpaceOnUse"><g id="mask-14"><path id="path-13" class="cls-2" d="M151.13,20.93A75.39,75.39,0,0,0,143,14.08c-.62-.48-1.25-.95-1.85-1.44a9.75,9.75,0,0,1-1.72-1.49c-.4-.9-.17-.2-.11-1.27.07-1.34,2.82-5.15.77-6-.9-.38-2.51.64-3.38,1-1.69.66-3.41,1.22-5.16,1.71.84-1.67,2.44-5-.57-4.12-2.34.7-4.52,2.49-6.87,3.33C124.85,4.48,128,.52,125.15.3c-.88-.07-3.43,1.58-4.37,1.93a51.64,51.64,0,0,1-8.67,2.26C102,6.3,90.25,5.79,80.92,10.37c-7.19,3.54-14.28,9-18.44,16-4,6.74-5.5,14.11-6.33,21.83a108.56,108.56,0,0,0-.38,17.2c.09,1.87.3,10.45,3,7.85,1.35-1.29,1.34-6.52,1.68-8.3A81.58,81.58,0,0,1,62.91,54.5c2-6,4.33-8.81,9.27-13,3.18-2.66,5.41-6.25,8.45-8.93,1.36-1.2.32-1.08,2.51-.92,1.48.11,3,.15,4.43.18C91,32,94.41,32,97.83,32c6.88,0,13.73.13,20.61-.24,3-.16,6.12-.24,9.16-.52,1.71-.16,4.73-1.25,6.13-.42s2.61,3.25,3.53,4.27a53.68,53.68,0,0,0,7.32,6.23c5.3,4.12,8,5.7,9.59,12.14s1.16,12.37,3.14,18.69c.35,1.11,1.28,3,2.42,1.31a12.72,12.72,0,0,0,.15-3.08c0-4.07,1-7.12,1-11.22C160.85,46.67,160.45,30.44,151.13,20.93Z"/></g></mask></defs><g id="Website"><g id="mf-avatar"><g id="Circle"><g id="Circle-Background"><circle id="path-1-2" data-name="path-1" class="cls-3" cx="108.8" cy="129" r="108"/></g><g class="cls-4"><g id="_-Circle-Color" data-name="ðŸ–-Circle-Color"><rect id="_Color" data-name="ðŸ–Color" class="cls-5" x="0.8" y="21" width="216.45" height="216"/></g></g></g><g class="cls-6"><g id="Avataaar"><g id="Body"><path id="path-5-3" data-name="path-5" class="cls-7" d="M108.8,17.4a50.39,50.39,0,0,1,50.4,50.4v5.55a10.8,10.8,0,0,1,9,10.65V96.6a10.79,10.79,0,0,1-9.28,10.69,50.44,50.44,0,0,1-28.52,40.26V164.1H134a64.8,64.8,0,0,1,64.8,64.8V237H18.8v-8.1a64.8,64.8,0,0,1,64.8-64.8h3.6V147.55a50.47,50.47,0,0,1-28.53-40.26A10.79,10.79,0,0,1,49.4,96.6V84a10.8,10.8,0,0,1,9-10.65V67.8A50.39,50.39,0,0,1,108.8,17.4Z"/><g class="cls-8"><g id="Skin_-05-Pale" data-name="Skin/ðŸ‘¶ðŸ»-05-Pale"><g id="Color"><rect class="cls-9" x="-10" y="17.4" width="238.38" height="220.35"/></g></g></g><g class="cls-10"><path id="Neck-Shadow" class="cls-11" d="M58.4,102a50.4,50.4,0,1,0,100.8,0h0v7.2a50.4,50.4,0,0,1-100.8,0Z"/></g></g><g id="Clothing_Hoodie" data-name="Clothing/Hoodie"><g id="Hoodie"><path id="path-7-4" data-name="path-7" class="cls-12" d="M130.4,149.76c16.29,1.83,28.8,6.84,28.8,19.81v-.39A64.81,64.81,0,0,1,198.8,228.9V237H18.8v-8.1a64.81,64.81,0,0,1,39.61-59.72c.24-12.68,12.66-17.61,28.79-19.42v17a21.6,21.6,0,0,0,43.2,0h0Z"/></g><g class="cls-13"><g id="Color_Palette_Slate" data-name="Color/Palette/Slate"><rect id="_Color-2" data-name="ðŸ–Color" class="cls-14" x="-10" y="138" width="238.49" height="99"/></g></g><g class="cls-15"><path id="Straps" class="cls-16" d="M81.8,193.57V237H75.5V190.33A59.15,59.15,0,0,0,81.8,193.57Zm60.3-3.24v36.32a3.15,3.15,0,0,1-6.3,0V193.56A57.3,57.3,0,0,0,142.1,190.33Z"/></g><g class="cls-17"><path id="Shadow" class="cls-18" d="M145.73,149.45c13.55,2.56,22.92,7.67,22.92,17.63,0,17.74-29.73,32.12-59.85,32.12S49,184.82,49,167.08c0-10,9.37-15.07,22.92-17.63-8.18,3-13.47,8.08-13.47,16.52,0,18.35,25,33.23,50.4,33.23s50.4-14.88,50.4-33.23c0-8.26-5.07-13.29-13-16.33Z"/></g></g><g id="Face"><g id="Mouth_Smile" data-name="Mouth/Smile"><g id="Mouth"><path id="path-9-3" data-name="path-9" class="cls-19" d="M91.81,119.22a17.1,17.1,0,0,0,34-.08,1.88,1.88,0,0,0-1.66-1.84H93.58A1.92,1.92,0,0,0,91.81,119.22Z"/></g><g class="cls-20"><path id="Teeth" class="cls-2" d="M99.8,107.4h18.9a4.49,4.49,0,0,1,4.5,4.5v5.4a4.49,4.49,0,0,1-4.5,4.5H99.8a4.49,4.49,0,0,1-4.5-4.5v-5.4A4.49,4.49,0,0,1,99.8,107.4Z"/></g><g class="cls-21"><g id="Tongue"><circle class="cls-22" cx="104.3" cy="137.1" r="9.9"/><circle class="cls-22" cx="113.3" cy="137.1" r="9.9"/></g></g></g><g id="Nose_Default" data-name="Nose/Default"><path id="Nose" class="cls-18" d="M98,102c0,4,4.84,7.2,10.8,7.2h0c6,0,10.8-3.22,10.8-7.2"/></g><g id="Eyes_Happy-_" data-name="Eyes/Happy-ðŸ˜"><path id="Squint" class="cls-23" d="M72.94,86.2a11.1,11.1,0,0,1,19.49,0c.5,1-.21,1.83-.92,1.22a13.51,13.51,0,0,0-8.81-3.08,13.66,13.66,0,0,0-8.61,2.9C73.29,87.87,72.46,87.2,72.94,86.2Z"/><path id="Squint-2" data-name="Squint" class="cls-23" d="M125.14,86.2a11.1,11.1,0,0,1,19.49,0c.5,1-.21,1.83-.92,1.22a13.51,13.51,0,0,0-8.81-3.08,13.66,13.66,0,0,0-8.61,2.9C125.49,87.87,124.66,87.2,125.14,86.2Z"/></g><g id="Eyebrow_Natural_Default-Natural" data-name="Eyebrow/Natural/Default-Natural"><path id="Eyebrow" class="cls-23" d="M82.29,64.33c-5.22.24-13.67,4-13.46,9.31a.23.23,0,0,0,.39.12C71.7,71.1,89.3,68.4,95.5,69.83c.57.13,1-.43.64-.83-3.08-3.47-9.17-4.89-13.85-4.67"/><path id="Eyebrow-2" data-name="Eyebrow" class="cls-23" d="M136.21,64.33c5.22.24,13.67,4,13.46,9.31a.23.23,0,0,1-.39.12C146.8,71.1,129.2,68.4,123,69.83c-.57.13-1-.43-.64-.83,3.08-3.47,9.17-4.89,13.85-4.67"/></g></g><g id="Top"><g class="cls-24"><g id="Short-Hair"><path id="path-13-2" data-name="path-13" class="cls-25" d="M151.13,20.93A75.39,75.39,0,0,0,143,14.08c-.62-.48-1.25-.95-1.85-1.44a9.75,9.75,0,0,1-1.72-1.49c-.4-.9-.17-.2-.11-1.27.07-1.34,2.82-5.15.77-6-.9-.38-2.51.64-3.38,1-1.69.66-3.41,1.22-5.16,1.71.84-1.67,2.44-5-.57-4.12-2.34.7-4.52,2.49-6.87,3.33C124.85,4.48,128,.52,125.15.3c-.88-.07-3.43,1.58-4.37,1.93a51.64,51.64,0,0,1-8.67,2.26C102,6.3,90.25,5.79,80.92,10.37c-7.19,3.54-14.28,9-18.44,16-4,6.74-5.5,14.11-6.33,21.83a108.56,108.56,0,0,0-.38,17.2c.09,1.87.3,10.45,3,7.85,1.35-1.29,1.34-6.52,1.68-8.3A81.58,81.58,0,0,1,62.91,54.5c2-6,4.33-8.81,9.27-13,3.18-2.66,5.41-6.25,8.45-8.93,1.36-1.2.32-1.08,2.51-.92,1.48.11,3,.15,4.43.18C91,32,94.41,32,97.83,32c6.88,0,13.73.13,20.61-.24,3-.16,6.12-.24,9.16-.52,1.71-.16,4.73-1.25,6.13-.42s2.61,3.25,3.53,4.27a53.68,53.68,0,0,0,7.32,6.23c5.3,4.12,8,5.7,9.59,12.14s1.16,12.37,3.14,18.69c.35,1.11,1.28,3,2.42,1.31a12.72,12.72,0,0,0,.15-3.08c0-4.07,1-7.12,1-11.22C160.85,46.67,160.45,30.44,151.13,20.93Z"/></g><g class="cls-26"><g id="Color_Hair_Brown-Dark" data-name="Color/Hair/Brown-Dark"><g id="Color-2" data-name="Color"><rect class="cls-27" x="-10.1" y="-15" width="239.11" height="252.41"/></g></g></g></g></g></g></g></g></g></svg>